<?xml version="1.0" standalone="no"?>
<!DOCTYPE svg PUBLIC "-//W3C//DTD SVG 20010904//EN"
 "http://www.w3.org/TR/2001/REC-SVG-20010904/DTD/svg10.dtd">
<svg version="1.0" xmlns="http://www.w3.org/2000/svg"
 width="1024.000000pt" height="1024.000000pt" viewBox="0 0 1024.000000 1024.000000"
 preserveAspectRatio="xMidYMid meet">
<metadata>
Created by potrace 1.11, written by Peter Selinger 2001-2013
</metadata>
<g transform="translate(0.000000,1024.000000) scale(0.100000,-0.100000)"
fill="#000000" stroke="none">
<path d="M0 5120 l0 -5120 5120 0 5120 0 0 5120 0 5120 -5120 0 -5120 0 0
-5120z m9975 1978 l-7 -93 -56 -73 c-52 -68 -64 -78 -155 -124 -88 -44 -101
-53 -114 -87 -14 -36 -23 -42 -112 -80 -71 -31 -101 -50 -112 -70 -24 -41
-146 -85 -274 -100 -55 -6 -123 -16 -152 -23 -50 -10 -54 -10 -87 15 -33 26
-35 26 -71 11 -21 -8 -39 -14 -40 -12 -2 2 2 22 8 45 6 23 8 46 4 49 -4 4 -49
8 -100 10 -50 1 -105 5 -120 9 -16 4 -47 2 -71 -5 -34 -9 -49 -9 -66 0 -17 9
-32 9 -65 0 -38 -11 -45 -17 -60 -59 -10 -25 -41 -91 -70 -146 -45 -85 -54
-113 -63 -185 -9 -74 -22 -109 -100 -280 -49 -107 -93 -206 -97 -220 -4 -14
-26 -50 -47 -81 -47 -67 -57 -106 -58 -225 0 -100 -17 -156 -76 -249 -18 -29
-42 -92 -58 -152 l-27 -102 21 -42 21 -41 -21 -101 c-12 -55 -28 -110 -36
-122 -10 -16 -11 -29 -4 -55 8 -29 7 -37 -10 -55 -14 -15 -17 -24 -9 -32 8 -8
8 -31 -1 -83 -7 -39 -10 -80 -7 -90 3 -11 -6 -54 -19 -95 -13 -42 -24 -99 -24
-128 0 -33 -12 -86 -34 -147 -18 -52 -41 -144 -51 -204 -15 -99 -25 -127 -106
-300 -49 -105 -89 -202 -89 -215 0 -13 9 -38 20 -56 l20 -33 -46 -41 c-26 -23
-65 -47 -88 -53 -23 -7 -81 -44 -129 -83 -49 -38 -93 -70 -98 -69 -5 1 -24 2
-43 3 -30 1 -36 6 -46 37 l-12 37 -65 -7 c-61 -6 -68 -5 -113 24 l-48 31 36
89 c22 57 41 90 53 93 23 6 100 125 161 249 28 56 59 104 73 114 21 14 25 24
25 69 0 94 38 278 75 365 19 44 53 133 75 196 l41 115 -24 82 c-23 82 -23 84
-7 167 9 47 28 121 42 165 15 44 31 112 37 150 15 97 35 162 70 216 l29 46
-30 31 -31 30 22 31 c20 27 21 36 11 65 -9 29 -7 42 15 92 14 32 37 73 50 90
14 18 25 46 25 62 0 23 6 32 30 42 32 13 34 19 24 69 -5 26 -9 29 -21 20 -10
-9 -8 3 7 41 19 47 19 55 6 75 -14 21 -13 32 15 121 l31 99 -31 26 c-39 32
-39 43 -1 71 38 28 43 88 9 112 l-21 14 25 44 c14 23 37 84 52 133 15 50 34
110 41 134 l14 43 -46 -7 c-26 -3 -144 -28 -263 -54 -204 -45 -221 -47 -289
-38 l-71 10 -36 -32 c-20 -17 -43 -31 -53 -31 -9 0 -34 -5 -55 -11 -38 -10
-39 -11 -32 -47 3 -20 8 -44 11 -53 3 -11 -26 -37 -98 -87 -57 -38 -121 -88
-142 -111 -31 -32 -44 -39 -65 -35 -31 6 -68 -27 -104 -96 -22 -43 -27 -46
-95 -64 -61 -16 -72 -23 -83 -48 -8 -19 -17 -27 -26 -24 -8 4 -18 6 -23 6 -5
0 -21 22 -36 49 -16 31 -57 75 -109 119 l-82 70 -37 105 c-29 85 -35 109 -26
131 8 22 16 26 48 26 31 0 45 7 73 36 18 19 63 60 100 89 56 46 68 62 82 109
l18 55 74 16 c62 14 74 20 77 38 2 18 11 23 48 27 38 4 47 9 58 36 l14 30 150
12 c101 7 158 8 176 1 26 -10 44 1 55 34 2 6 29 6 77 0 43 -6 88 -6 105 -2 16
5 47 9 67 9 21 0 38 4 38 8 0 4 19 17 43 28 32 16 51 18 82 13 22 -4 74 -8
116 -8 71 -1 77 1 103 28 24 26 32 28 54 20 15 -6 56 -7 92 -4 108 10 130 15
130 30 0 20 68 19 94 0 11 -8 36 -15 56 -15 20 0 41 -5 46 -10 13 -13 123 9
241 47 82 27 82 27 104 7 18 -16 37 -19 128 -20 86 0 122 -6 191 -27 47 -15
93 -30 104 -33 11 -4 16 -2 12 4 -3 5 20 32 52 59 l57 50 100 -13 c83 -10 109
-10 150 2 113 31 215 42 284 32 65 -10 69 -9 171 32 58 23 148 67 200 98 85
50 161 79 214 81 17 1 18 -5 11 -91z m-6913 -206 l36 -67 -34 -37 c-19 -21
-34 -48 -34 -62 0 -14 -26 -59 -61 -107 -56 -75 -60 -85 -52 -113 7 -26 -1
-62 -50 -211 -44 -134 -60 -197 -61 -245 -3 -70 -23 -140 -41 -140 -7 0 -11
-21 -11 -53 0 -40 -10 -77 -38 -142 l-38 -87 27 -28 27 -28 -40 -108 c-37
-100 -39 -110 -22 -116 25 -9 140 21 140 37 0 8 16 19 35 25 20 7 42 24 55 44
21 35 52 46 132 46 34 0 37 2 40 33 3 29 8 34 56 50 29 9 92 46 140 81 48 35
106 73 129 85 23 11 65 45 93 75 28 30 62 57 75 60 12 3 39 28 58 55 51 71
132 132 297 225 l145 81 36 68 c34 64 40 70 141 132 65 40 120 82 142 109 36
44 276 226 298 226 6 0 35 18 64 40 55 41 73 47 103 31 14 -8 34 2 92 44 91
67 118 70 170 19 35 -34 36 -37 26 -77 -6 -24 -7 -42 -1 -44 5 -2 27 -14 49
-28 l40 -24 -49 -1 c-44 0 -57 -6 -155 -79 -58 -43 -166 -111 -240 -152 -82
-45 -137 -83 -144 -96 -9 -20 -18 -23 -71 -23 l-61 0 -36 -59 c-26 -42 -51
-67 -90 -90 -30 -18 -68 -42 -86 -54 -17 -12 -59 -37 -92 -56 -35 -20 -76 -54
-98 -82 -27 -34 -45 -48 -63 -49 -29 0 -88 -64 -130 -139 -20 -36 -35 -49 -75
-65 -28 -12 -71 -36 -97 -54 -27 -18 -71 -44 -100 -57 -44 -20 -57 -33 -78
-76 -23 -44 -36 -56 -95 -88 -61 -32 -71 -41 -88 -84 -18 -44 -19 -49 -3 -66
16 -18 13 -22 -59 -99 l-76 -81 27 -40 27 -41 -17 -58 c-16 -58 -16 -60 14
-178 40 -161 48 -232 26 -240 -9 -3 -16 -12 -16 -20 0 -17 12 -18 28 -2 6 6
13 10 15 7 12 -15 88 -165 112 -221 15 -38 32 -68 36 -68 4 0 25 -16 46 -36
21 -20 57 -49 80 -66 24 -16 60 -55 82 -86 92 -136 182 -206 311 -243 25 -7
54 -20 65 -29 11 -10 44 -25 74 -35 30 -10 74 -32 97 -50 l43 -33 158 -6 c87
-4 203 -11 257 -17 119 -13 270 -3 262 16 -6 17 15 25 70 25 38 0 46 4 54 25
9 23 14 25 76 25 l67 0 -22 24 c-22 23 -23 30 -16 116 5 63 12 93 21 97 7 3
41 37 74 76 l61 72 59 0 c68 1 103 22 81 48 -8 11 -9 22 -1 43 14 36 26 44 71
44 31 0 40 6 63 40 14 22 33 40 42 40 8 0 25 -22 39 -51 19 -41 21 -57 13 -78
-5 -14 -10 -42 -9 -61 0 -19 -5 -47 -11 -63 -8 -20 -7 -31 2 -42 9 -11 5 -21
-23 -49 -19 -19 -41 -52 -47 -73 -7 -21 -21 -48 -32 -59 -15 -17 -16 -23 -6
-26 10 -4 10 -9 -3 -24 -8 -10 -33 -58 -54 -106 -21 -49 -42 -88 -47 -88 -4 0
-8 -15 -8 -34 0 -29 -8 -41 -47 -73 -25 -21 -62 -54 -82 -74 -27 -27 -47 -38
-80 -42 -25 -3 -48 -12 -53 -21 -5 -9 -18 -16 -29 -16 -11 0 -36 -18 -57 -39
-36 -39 -40 -40 -204 -75 -177 -38 -256 -43 -348 -24 -44 9 -71 9 -116 0 -54
-11 -63 -10 -127 15 l-69 27 -103 -20 -103 -20 -127 46 c-82 30 -131 53 -138
66 -5 10 -11 20 -13 22 -1 2 -39 -4 -83 -13 l-81 -16 -70 37 c-38 20 -86 54
-106 76 -30 33 -47 43 -99 55 -60 14 -63 15 -85 63 -29 62 -100 132 -148 145
-49 14 -112 101 -112 156 0 34 -4 40 -42 61 -35 19 -44 29 -46 56 -2 21 -12
38 -27 48 -14 9 -22 21 -18 30 3 10 -10 32 -35 57 -30 31 -42 54 -47 87 -4 25
-27 95 -51 157 -24 61 -44 118 -44 126 0 7 -13 34 -30 58 -24 37 -39 48 -83
62 -30 9 -56 17 -59 17 -3 0 -18 -16 -33 -36 -19 -25 -32 -59 -41 -111 -10
-57 -23 -91 -58 -147 -42 -67 -46 -79 -46 -136 0 -46 -6 -72 -21 -97 -18 -29
-20 -39 -10 -59 16 -35 14 -43 -13 -55 -22 -10 -23 -14 -12 -41 10 -23 10 -44
0 -101 -8 -50 -9 -76 -2 -85 8 -9 8 -20 0 -37 -8 -18 -8 -34 2 -62 11 -32 11
-44 -1 -78 -10 -27 -15 -87 -16 -190 -2 -148 -2 -151 27 -205 l29 -55 -18
-125 c-12 -83 -24 -134 -36 -152 -11 -14 -19 -30 -19 -36 0 -5 -17 -17 -38
-26 -21 -10 -57 -40 -81 -67 -23 -27 -64 -60 -89 -74 -26 -13 -62 -34 -81 -48
l-35 -24 -43 25 c-23 13 -45 28 -48 32 -3 5 7 31 22 57 l27 49 -22 29 c-18 26
-20 36 -12 70 10 42 7 48 -55 91 -19 14 -19 14 3 59 15 30 22 64 22 102 0 93
30 243 62 315 29 64 30 69 16 104 -13 32 -13 45 -2 88 7 28 22 121 33 206 11
85 25 169 31 185 19 48 59 253 66 335 4 41 11 84 17 95 16 30 48 175 47 215 0
19 17 112 39 206 22 95 43 208 47 253 4 48 12 85 20 92 8 7 14 31 14 59 0 26
7 69 15 96 8 27 13 56 10 64 -2 8 -8 33 -14 55 -8 31 -19 45 -46 59 -31 17
-35 23 -35 60 0 37 6 48 49 90 47 46 49 52 55 115 4 41 1 87 -7 121 -13 52
-12 58 10 105 46 100 24 142 -106 204 l-88 42 -169 -58 c-154 -52 -177 -57
-259 -58 -72 0 -98 -5 -131 -22 -23 -12 -104 -34 -184 -49 l-142 -27 6 -41 c4
-23 17 -61 30 -86 22 -42 26 -45 69 -48 44 -3 47 -5 76 -57 17 -30 31 -59 31
-63 0 -5 -25 -26 -55 -46 -31 -20 -60 -47 -64 -59 -5 -12 -26 -38 -48 -58 -31
-30 -47 -38 -88 -41 -28 -3 -88 -21 -135 -41 -77 -34 -85 -35 -102 -21 -12 12
-27 15 -53 10 -32 -6 -39 -13 -62 -67 -14 -32 -29 -59 -34 -59 -4 0 -19 14
-32 31 -21 27 -23 37 -16 68 5 20 9 39 9 42 0 3 -18 14 -40 24 -35 16 -40 22
-40 51 0 29 -6 36 -38 53 -20 10 -45 33 -55 50 -19 33 -17 61 19 222 15 65 16
67 46 65 28 -1 37 6 70 54 21 30 45 56 52 58 8 2 16 12 19 23 3 11 14 19 26
19 11 0 30 13 42 29 12 17 48 44 81 61 36 19 63 41 68 56 7 17 17 24 35 24 16
0 42 15 68 39 25 23 57 41 78 45 24 4 39 13 42 26 4 14 17 21 55 26 37 5 58
14 78 35 21 22 37 29 65 29 68 0 143 22 174 51 26 24 36 27 71 22 60 -8 294
34 374 67 37 15 92 31 121 35 30 4 81 16 114 26 34 11 91 19 130 19 156 1 332
48 362 98 7 13 28 22 57 26 32 5 43 11 40 21 -6 15 26 20 146 23 l65 2 37 -68z"/>
</g>
</svg>
